<mxfile host="app.diagrams.net" modified="2020-10-15T06:29:52.526Z" agent="5.0 (Windows)" etag="ct-X0i0RJeMsxGqJ7298" version="13.8.0" type="github">
  <diagram id="znga5Cu131E_-9qryZF8" name="Page-1">
    <mxGraphModel dx="910" dy="487" grid="1" gridSize="10" guides="1" tooltips="1" connect="1" arrows="1" fold="1" page="1" pageScale="1" pageWidth="1169" pageHeight="827" math="0" shadow="0">
      <root>
        <mxCell id="0" />
        <mxCell id="1" parent="0" />
        <mxCell id="18WlAGKv3SEhdBKcBWfW-1" value="Petition Process" style="swimlane;html=1;childLayout=stackLayout;resizeParent=1;resizeParentMax=0;horizontal=1;startSize=20;horizontalStack=0;" parent="1" vertex="1">
          <mxGeometry x="20" y="50" width="1120" height="810" as="geometry" />
        </mxCell>
        <mxCell id="18WlAGKv3SEhdBKcBWfW-2" value="" style="swimlane;html=1;startSize=20;horizontal=0;" parent="18WlAGKv3SEhdBKcBWfW-1" vertex="1">
          <mxGeometry y="20" width="1120" height="790" as="geometry" />
        </mxCell>
        <mxCell id="tqYWSmG6XYO8T_lrHcQw-3" value="" style="edgeStyle=orthogonalEdgeStyle;rounded=0;orthogonalLoop=1;jettySize=auto;html=1;entryX=0.5;entryY=0;entryDx=0;entryDy=0;" parent="18WlAGKv3SEhdBKcBWfW-2" source="tqYWSmG6XYO8T_lrHcQw-1" target="tqYWSmG6XYO8T_lrHcQw-4" edge="1">
          <mxGeometry relative="1" as="geometry">
            <mxPoint x="100" y="135" as="targetPoint" />
          </mxGeometry>
        </mxCell>
        <mxCell id="tqYWSmG6XYO8T_lrHcQw-1" value="Start" style="rounded=1;whiteSpace=wrap;html=1;" parent="18WlAGKv3SEhdBKcBWfW-2" vertex="1">
          <mxGeometry x="50" y="9" width="100" height="50" as="geometry" />
        </mxCell>
        <mxCell id="tqYWSmG6XYO8T_lrHcQw-4" value="Petitioner fills the Petition form" style="rounded=0;whiteSpace=wrap;html=1;" parent="18WlAGKv3SEhdBKcBWfW-2" vertex="1">
          <mxGeometry x="40" y="100" width="120" height="60" as="geometry" />
        </mxCell>
        <mxCell id="XICMrNqC_bUasMm1yP-3-13" value="Recommend physical interview" style="whiteSpace=wrap;html=1;rounded=0;" vertex="1" parent="18WlAGKv3SEhdBKcBWfW-2">
          <mxGeometry x="445" y="210" width="120" height="60" as="geometry" />
        </mxCell>
        <mxCell id="tqYWSmG6XYO8T_lrHcQw-9" value="Generation of petition number" style="shape=process;whiteSpace=wrap;html=1;backgroundOutline=1;" parent="18WlAGKv3SEhdBKcBWfW-2" vertex="1">
          <mxGeometry x="240" y="220" width="120" height="60" as="geometry" />
        </mxCell>
        <mxCell id="tqYWSmG6XYO8T_lrHcQw-5" value="Form submitted and received at POMAC" style="whiteSpace=wrap;html=1;rounded=0;" parent="18WlAGKv3SEhdBKcBWfW-2" vertex="1">
          <mxGeometry x="40" y="220" width="120" height="60" as="geometry" />
        </mxCell>
        <mxCell id="XICMrNqC_bUasMm1yP-3-15" value="yes" style="text;html=1;strokeColor=none;fillColor=none;align=center;verticalAlign=middle;whiteSpace=wrap;rounded=0;" vertex="1" parent="18WlAGKv3SEhdBKcBWfW-2">
          <mxGeometry x="630" y="250" width="40" height="20" as="geometry" />
        </mxCell>
        <mxCell id="XICMrNqC_bUasMm1yP-3-38" value="Signed pardon warranty is then forwarded&amp;nbsp; to AG for execution" style="whiteSpace=wrap;html=1;rounded=0;" vertex="1" parent="18WlAGKv3SEhdBKcBWfW-2">
          <mxGeometry x="766" y="270" width="120" height="60" as="geometry" />
        </mxCell>
        <mxCell id="XICMrNqC_bUasMm1yP-3-11" value="Approved?" style="rhombus;whiteSpace=wrap;html=1;rounded=0;" vertex="1" parent="18WlAGKv3SEhdBKcBWfW-2">
          <mxGeometry x="350" y="290" width="80" height="80" as="geometry" />
        </mxCell>
        <mxCell id="XICMrNqC_bUasMm1yP-3-16" value="Physical interviews done at the prison" style="whiteSpace=wrap;html=1;rounded=0;" vertex="1" parent="18WlAGKv3SEhdBKcBWfW-2">
          <mxGeometry x="566" y="300" width="120" height="60" as="geometry" />
        </mxCell>
        <mxCell id="XICMrNqC_bUasMm1yP-3-42" value="yes" style="text;html=1;strokeColor=none;fillColor=none;align=center;verticalAlign=middle;whiteSpace=wrap;rounded=0;" vertex="1" parent="18WlAGKv3SEhdBKcBWfW-2">
          <mxGeometry x="826" y="360" width="40" height="20" as="geometry" />
        </mxCell>
        <mxCell id="tqYWSmG6XYO8T_lrHcQw-7" value="Verification and validation of data" style="shape=process;whiteSpace=wrap;html=1;backgroundOutline=1;rounded=0;" parent="18WlAGKv3SEhdBKcBWfW-2" vertex="1">
          <mxGeometry x="40" y="344" width="120" height="60" as="geometry" />
        </mxCell>
        <mxCell id="XICMrNqC_bUasMm1yP-3-18" value="Forward approved petition to NIS for security intelligence report" style="whiteSpace=wrap;html=1;rounded=0;" vertex="1" parent="18WlAGKv3SEhdBKcBWfW-2">
          <mxGeometry x="566" y="404" width="120" height="60" as="geometry" />
        </mxCell>
        <mxCell id="XICMrNqC_bUasMm1yP-3-36" value="H.E Signs?" style="rhombus;whiteSpace=wrap;html=1;rounded=0;" vertex="1" parent="18WlAGKv3SEhdBKcBWfW-2">
          <mxGeometry x="786" y="394" width="80" height="80" as="geometry" />
        </mxCell>
        <mxCell id="tqYWSmG6XYO8T_lrHcQw-11" value="Data complete?" style="rhombus;whiteSpace=wrap;html=1;rounded=0;" parent="18WlAGKv3SEhdBKcBWfW-2" vertex="1">
          <mxGeometry x="60" y="450" width="80" height="80" as="geometry" />
        </mxCell>
        <mxCell id="XICMrNqC_bUasMm1yP-3-7" value="Secretary Petitions convenes a meeting during which petition reports are projected before the committee." style="whiteSpace=wrap;html=1;rounded=0;" vertex="1" parent="18WlAGKv3SEhdBKcBWfW-2">
          <mxGeometry x="320" y="440" width="140" height="80" as="geometry" />
        </mxCell>
        <mxCell id="XICMrNqC_bUasMm1yP-3-28" value="Generate pardon warrant and forward to President through Head of Public service" style="whiteSpace=wrap;html=1;rounded=0;" vertex="1" parent="18WlAGKv3SEhdBKcBWfW-2">
          <mxGeometry x="761" y="530" width="130" height="60" as="geometry" />
        </mxCell>
        <mxCell id="XICMrNqC_bUasMm1yP-3-20" value="Secretary/CEO receives NIS reports that has recommendation and convenes a meeting" style="whiteSpace=wrap;html=1;rounded=0;" vertex="1" parent="18WlAGKv3SEhdBKcBWfW-2">
          <mxGeometry x="566" y="510" width="120" height="100" as="geometry" />
        </mxCell>
        <mxCell id="tqYWSmG6XYO8T_lrHcQw-15" value="yes" style="text;html=1;strokeColor=none;fillColor=none;align=center;verticalAlign=middle;whiteSpace=wrap;rounded=0;" parent="18WlAGKv3SEhdBKcBWfW-2" vertex="1">
          <mxGeometry x="100" y="550" width="40" height="20" as="geometry" />
        </mxCell>
        <mxCell id="XICMrNqC_bUasMm1yP-3-5" value="POMAC secretariat receives petition summary from submitted reports" style="whiteSpace=wrap;html=1;rounded=0;" vertex="1" parent="18WlAGKv3SEhdBKcBWfW-2">
          <mxGeometry x="330" y="600" width="120" height="60" as="geometry" />
        </mxCell>
        <mxCell id="tqYWSmG6XYO8T_lrHcQw-13" value="POMAC looks for judgement " style="whiteSpace=wrap;html=1;rounded=0;" parent="18WlAGKv3SEhdBKcBWfW-2" vertex="1">
          <mxGeometry x="40" y="600" width="120" height="60" as="geometry" />
        </mxCell>
        <mxCell id="tqYWSmG6XYO8T_lrHcQw-6" value="" style="edgeStyle=orthogonalEdgeStyle;rounded=0;orthogonalLoop=1;jettySize=auto;html=1;" parent="18WlAGKv3SEhdBKcBWfW-2" source="tqYWSmG6XYO8T_lrHcQw-4" target="tqYWSmG6XYO8T_lrHcQw-5" edge="1">
          <mxGeometry relative="1" as="geometry" />
        </mxCell>
        <mxCell id="tqYWSmG6XYO8T_lrHcQw-10" value="" style="edgeStyle=orthogonalEdgeStyle;rounded=0;orthogonalLoop=1;jettySize=auto;html=1;" parent="18WlAGKv3SEhdBKcBWfW-2" source="tqYWSmG6XYO8T_lrHcQw-9" target="tqYWSmG6XYO8T_lrHcQw-5" edge="1">
          <mxGeometry relative="1" as="geometry" />
        </mxCell>
        <mxCell id="tqYWSmG6XYO8T_lrHcQw-8" value="" style="edgeStyle=orthogonalEdgeStyle;rounded=0;orthogonalLoop=1;jettySize=auto;html=1;" parent="18WlAGKv3SEhdBKcBWfW-2" source="tqYWSmG6XYO8T_lrHcQw-5" target="tqYWSmG6XYO8T_lrHcQw-7" edge="1">
          <mxGeometry relative="1" as="geometry" />
        </mxCell>
        <mxCell id="tqYWSmG6XYO8T_lrHcQw-12" value="" style="edgeStyle=orthogonalEdgeStyle;rounded=0;orthogonalLoop=1;jettySize=auto;html=1;" parent="18WlAGKv3SEhdBKcBWfW-2" source="tqYWSmG6XYO8T_lrHcQw-7" target="tqYWSmG6XYO8T_lrHcQw-11" edge="1">
          <mxGeometry relative="1" as="geometry" />
        </mxCell>
        <mxCell id="XICMrNqC_bUasMm1yP-3-25" value="" style="edgeStyle=orthogonalEdgeStyle;rounded=0;orthogonalLoop=1;jettySize=auto;html=1;entryX=0.5;entryY=0;entryDx=0;entryDy=0;" edge="1" parent="18WlAGKv3SEhdBKcBWfW-2" source="tqYWSmG6XYO8T_lrHcQw-11" target="tqYWSmG6XYO8T_lrHcQw-13">
          <mxGeometry relative="1" as="geometry">
            <mxPoint x="100" y="610" as="targetPoint" />
          </mxGeometry>
        </mxCell>
        <mxCell id="XICMrNqC_bUasMm1yP-3-2" value="" style="edgeStyle=orthogonalEdgeStyle;rounded=0;orthogonalLoop=1;jettySize=auto;html=1;" edge="1" parent="18WlAGKv3SEhdBKcBWfW-2" source="tqYWSmG6XYO8T_lrHcQw-13" target="XICMrNqC_bUasMm1yP-3-1">
          <mxGeometry relative="1" as="geometry" />
        </mxCell>
        <mxCell id="XICMrNqC_bUasMm1yP-3-30" value="yes" style="text;html=1;strokeColor=none;fillColor=none;align=center;verticalAlign=middle;whiteSpace=wrap;rounded=0;" vertex="1" parent="18WlAGKv3SEhdBKcBWfW-2">
          <mxGeometry x="820" y="615" width="40" height="20" as="geometry" />
        </mxCell>
        <mxCell id="XICMrNqC_bUasMm1yP-3-35" value="no" style="text;html=1;strokeColor=none;fillColor=none;align=center;verticalAlign=middle;whiteSpace=wrap;rounded=0;" vertex="1" parent="18WlAGKv3SEhdBKcBWfW-2">
          <mxGeometry x="874" y="666" width="40" height="20" as="geometry" />
        </mxCell>
        <mxCell id="XICMrNqC_bUasMm1yP-3-22" value="Committee meets and fills the legal instrument for recommendations" style="whiteSpace=wrap;html=1;rounded=0;" vertex="1" parent="18WlAGKv3SEhdBKcBWfW-2">
          <mxGeometry x="566" y="660" width="120" height="60" as="geometry" />
        </mxCell>
        <mxCell id="XICMrNqC_bUasMm1yP-3-3" value="POMAC receives reports from stakeholders and analyses" style="whiteSpace=wrap;html=1;rounded=0;" vertex="1" parent="18WlAGKv3SEhdBKcBWfW-2">
          <mxGeometry x="330" y="710" width="120" height="60" as="geometry" />
        </mxCell>
        <mxCell id="XICMrNqC_bUasMm1yP-3-1" value="POMAC writes to stakeholders for information about prisoner" style="whiteSpace=wrap;html=1;rounded=0;" vertex="1" parent="18WlAGKv3SEhdBKcBWfW-2">
          <mxGeometry x="40" y="710" width="120" height="60" as="geometry" />
        </mxCell>
        <mxCell id="XICMrNqC_bUasMm1yP-3-4" value="" style="edgeStyle=orthogonalEdgeStyle;rounded=0;orthogonalLoop=1;jettySize=auto;html=1;" edge="1" parent="18WlAGKv3SEhdBKcBWfW-2" source="XICMrNqC_bUasMm1yP-3-1" target="XICMrNqC_bUasMm1yP-3-3">
          <mxGeometry relative="1" as="geometry" />
        </mxCell>
        <mxCell id="XICMrNqC_bUasMm1yP-3-6" value="" style="edgeStyle=orthogonalEdgeStyle;rounded=0;orthogonalLoop=1;jettySize=auto;html=1;" edge="1" parent="18WlAGKv3SEhdBKcBWfW-2" source="XICMrNqC_bUasMm1yP-3-3" target="XICMrNqC_bUasMm1yP-3-5">
          <mxGeometry relative="1" as="geometry" />
        </mxCell>
        <mxCell id="XICMrNqC_bUasMm1yP-3-8" value="" style="edgeStyle=orthogonalEdgeStyle;rounded=0;orthogonalLoop=1;jettySize=auto;html=1;" edge="1" parent="18WlAGKv3SEhdBKcBWfW-2" source="XICMrNqC_bUasMm1yP-3-5" target="XICMrNqC_bUasMm1yP-3-7">
          <mxGeometry relative="1" as="geometry" />
        </mxCell>
        <mxCell id="XICMrNqC_bUasMm1yP-3-12" value="" style="edgeStyle=orthogonalEdgeStyle;rounded=0;orthogonalLoop=1;jettySize=auto;html=1;" edge="1" parent="18WlAGKv3SEhdBKcBWfW-2" source="XICMrNqC_bUasMm1yP-3-7" target="XICMrNqC_bUasMm1yP-3-11">
          <mxGeometry relative="1" as="geometry" />
        </mxCell>
        <mxCell id="XICMrNqC_bUasMm1yP-3-14" value="" style="edgeStyle=orthogonalEdgeStyle;rounded=0;orthogonalLoop=1;jettySize=auto;html=1;" edge="1" parent="18WlAGKv3SEhdBKcBWfW-2" source="XICMrNqC_bUasMm1yP-3-11" target="XICMrNqC_bUasMm1yP-3-13">
          <mxGeometry relative="1" as="geometry" />
        </mxCell>
        <mxCell id="XICMrNqC_bUasMm1yP-3-17" value="" style="edgeStyle=orthogonalEdgeStyle;rounded=0;orthogonalLoop=1;jettySize=auto;html=1;" edge="1" parent="18WlAGKv3SEhdBKcBWfW-2" source="XICMrNqC_bUasMm1yP-3-13" target="XICMrNqC_bUasMm1yP-3-16">
          <mxGeometry relative="1" as="geometry" />
        </mxCell>
        <mxCell id="XICMrNqC_bUasMm1yP-3-19" value="" style="edgeStyle=orthogonalEdgeStyle;rounded=0;orthogonalLoop=1;jettySize=auto;html=1;" edge="1" parent="18WlAGKv3SEhdBKcBWfW-2" source="XICMrNqC_bUasMm1yP-3-16" target="XICMrNqC_bUasMm1yP-3-18">
          <mxGeometry relative="1" as="geometry" />
        </mxCell>
        <mxCell id="XICMrNqC_bUasMm1yP-3-21" value="" style="edgeStyle=orthogonalEdgeStyle;rounded=0;orthogonalLoop=1;jettySize=auto;html=1;" edge="1" parent="18WlAGKv3SEhdBKcBWfW-2" source="XICMrNqC_bUasMm1yP-3-18" target="XICMrNqC_bUasMm1yP-3-20">
          <mxGeometry relative="1" as="geometry" />
        </mxCell>
        <mxCell id="XICMrNqC_bUasMm1yP-3-23" value="" style="edgeStyle=orthogonalEdgeStyle;rounded=0;orthogonalLoop=1;jettySize=auto;html=1;" edge="1" parent="18WlAGKv3SEhdBKcBWfW-2" source="XICMrNqC_bUasMm1yP-3-20" target="XICMrNqC_bUasMm1yP-3-22">
          <mxGeometry relative="1" as="geometry" />
        </mxCell>
        <mxCell id="XICMrNqC_bUasMm1yP-3-37" value="" style="edgeStyle=orthogonalEdgeStyle;rounded=0;orthogonalLoop=1;jettySize=auto;html=1;" edge="1" parent="18WlAGKv3SEhdBKcBWfW-2" source="XICMrNqC_bUasMm1yP-3-28" target="XICMrNqC_bUasMm1yP-3-36">
          <mxGeometry relative="1" as="geometry" />
        </mxCell>
        <mxCell id="XICMrNqC_bUasMm1yP-3-39" value="" style="edgeStyle=orthogonalEdgeStyle;rounded=0;orthogonalLoop=1;jettySize=auto;html=1;" edge="1" parent="18WlAGKv3SEhdBKcBWfW-2" source="XICMrNqC_bUasMm1yP-3-36" target="XICMrNqC_bUasMm1yP-3-38">
          <mxGeometry relative="1" as="geometry" />
        </mxCell>
        <mxCell id="XICMrNqC_bUasMm1yP-3-29" value="" style="edgeStyle=orthogonalEdgeStyle;rounded=0;orthogonalLoop=1;jettySize=auto;html=1;" edge="1" parent="1" source="XICMrNqC_bUasMm1yP-3-26" target="XICMrNqC_bUasMm1yP-3-28">
          <mxGeometry relative="1" as="geometry" />
        </mxCell>
        <mxCell id="XICMrNqC_bUasMm1yP-3-34" value="" style="edgeStyle=orthogonalEdgeStyle;rounded=0;orthogonalLoop=1;jettySize=auto;html=1;" edge="1" parent="1" source="XICMrNqC_bUasMm1yP-3-26" target="XICMrNqC_bUasMm1yP-3-33">
          <mxGeometry relative="1" as="geometry" />
        </mxCell>
        <mxCell id="XICMrNqC_bUasMm1yP-3-26" value="Presidential referral?" style="rhombus;whiteSpace=wrap;html=1;rounded=0;" vertex="1" parent="1">
          <mxGeometry x="806" y="720" width="80" height="80" as="geometry" />
        </mxCell>
        <mxCell id="XICMrNqC_bUasMm1yP-3-27" value="" style="edgeStyle=orthogonalEdgeStyle;rounded=0;orthogonalLoop=1;jettySize=auto;html=1;" edge="1" parent="1" source="XICMrNqC_bUasMm1yP-3-22" target="XICMrNqC_bUasMm1yP-3-26">
          <mxGeometry relative="1" as="geometry" />
        </mxCell>
        <mxCell id="XICMrNqC_bUasMm1yP-3-33" value="Forward petition to judiciary" style="whiteSpace=wrap;html=1;rounded=0;" vertex="1" parent="1">
          <mxGeometry x="946" y="730" width="120" height="60" as="geometry" />
        </mxCell>
      </root>
    </mxGraphModel>
  </diagram>
</mxfile>
